<?xml version="1.0" standalone="no"?>
<!DOCTYPE svg PUBLIC "-//W3C//DTD SVG 1.1//EN" "http://www.w3.org/Graphics/SVG/1.1/DTD/svg11.dtd" >
<svg xmlns="http://www.w3.org/2000/svg">
<metadata>
This is a custom SVG webfont generated by Font Squirrel.
Copyright   : Copyright  1989 1995 2002 Adobe Systems Incorporated  All Rights Reserved  1981 1995 2002 Heidelberger Druckmaschinen AG All rights reserved
Designer    : Adrian Frutiger
Foundry URL : httpwwwadobecomtype
</metadata>
<defs>
<font id="AvenirLTStd35LightOblique" horiz-adv-x="1064" >
<font-face units-per-em="2048" ascent="1548" descent="-500" />
<missing-glyph horiz-adv-x="532" />
<glyph unicode=" "  horiz-adv-x="532" />
<glyph unicode="&#x09;" horiz-adv-x="532" />
<glyph unicode="&#xa0;" horiz-adv-x="532" />
<glyph unicode="!" horiz-adv-x="757" d="M293 86q6 41 39 69.5t73.5 28.5t65.5 -28.5t18.5 -69.5t-39 -69.5t-73.5 -28.5t-65.5 28.5t-18.5 69.5zM371 381l151 1069h123l-151 -1069h-123z" />
<glyph unicode="&#x22;" d="M467 983l68 467h122l-67 -467h-123zM750 983l67 467h123l-68 -467h-122z" />
<glyph unicode="#" d="M92 469l14 98h236l90 320h-221l14 98h236l127 465h106l-129 -465h285l129 465h106l-129 -465h222l-15 -98h-235l-88 -320h221l-14 -98h-236l-127 -469h-106l127 469h-285l-127 -469h-107l127 469h-221zM451 567h282l88 320h-282z" />
<glyph unicode="$" d="M94 190l129 80q37 -82 107.5 -131t158.5 -53l84 594l-139 53q-68 27 -111.5 73t-58 93t-19.5 96t3 82q23 162 155 272.5t281 125.5l21 137h98l-21 -137q250 0 355 -183l-125 -82q-37 72 -102.5 113t-141.5 41l-82 -578l137 -49q104 -39 167 -128t42 -238 q-25 -168 -160 -276.5t-301 -119.5l-18 -137h-98l18 137q-115 0 -219.5 56.5t-159.5 158.5zM383 1085q-12 -100 33 -158.5t143 -95.5l33 -12l78 545q-106 -18 -188.5 -93t-98.5 -186zM588 86q117 4 206 87t105 206q25 162 -149 231l-84 33z" />
<glyph unicode="%" horiz-adv-x="1669" d="M235.5 1122.5q20.5 145.5 138.5 249t263 103.5t234.5 -103.5t69 -249t-138.5 -249t-263.5 -103.5t-234.5 103.5t-68.5 249zM322 -12l1148 1532l86 -58l-1150 -1532zM346 1122.5q-14 -102.5 46.5 -172t160.5 -69.5t181 69.5t95.5 172t-46 172t-161 69.5t-181.5 -69.5 t-95 -172zM932 328q23 145 140.5 248.5t263 103.5t233.5 -103.5t67.5 -249t-138.5 -249t-263 -103.5t-234 104t-69 249zM1042.5 327.5q-14.5 -102.5 47 -172t162 -69.5t180 69.5t94 172t-46 172t-160.5 69.5t-181 -69.5t-95.5 -172z" />
<glyph unicode="&#x26;" horiz-adv-x="1441" d="M174 385q12 80 46 144.5t98.5 118.5t111.5 84t137 81q-47 70 -70.5 107.5t-45 106.5t-13.5 130q23 152 141.5 241t270.5 89q133 0 218 -86t67 -221q-10 -74 -43 -133.5t-95.5 -107.5t-107.5 -73.5t-131 -70.5l299 -373l262 377h139l-328 -463l281 -346h-182l-185 233 q-113 -127 -228.5 -193.5t-258.5 -66.5q-188 0 -298 116t-85 306zM311 389q-20 -135 63 -219t222 -84q199 0 379 223l-342 418q-72 -39 -110 -63.5t-91 -67.5t-83 -94.5t-38 -112.5zM575 1159q-14 -100 115 -280q66 31 100.5 50t88 57t82 83t36.5 100q12 86 -37 140.5 t-137 54.5q-92 0 -164 -57.5t-84 -147.5z" />
<glyph unicode="'" horiz-adv-x="532" d="M342 983l68 467h122l-67 -467h-123z" />
<glyph unicode="(" horiz-adv-x="532" d="M201 590q35 244 143.5 482.5t269.5 426.5l95 -65q-150 -162 -251.5 -391.5t-133.5 -452.5q-57 -426 147 -848l-104 -61q-113 195 -156 434t-10 475z" />
<glyph unicode=")" horiz-adv-x="532" d="M-10 -254q152 162 252 391.5t131 452.5q59 424 -146 848l105 61q115 -197 156.5 -435.5t7.5 -473.5q-33 -242 -141.5 -481.5t-270.5 -427.5z" />
<glyph unicode="*" horiz-adv-x="909" d="M240 1145l41 92l286 -98l45 311h99l-45 -311l309 98l16 -98l-307 -97l150 -249l-84 -60l-156 256l-219 -256l-74 60l223 249z" />
<glyph unicode="+" horiz-adv-x="1363" d="M240 571l14 99h473l66 473h98l-66 -473h473l-14 -99h-473l-66 -473h-98l66 473h-473z" />
<glyph unicode="," horiz-adv-x="532" d="M63 -283l201 467h144l-224 -467h-121z" />
<glyph unicode="-" horiz-adv-x="681" d="M150 430l14 111h506l-15 -111h-505z" />
<glyph unicode="." horiz-adv-x="532" d="M180 86q6 41 39 69.5t74 28.5t65.5 -28.5t18.5 -69.5t-39 -69.5t-74 -28.5t-65.5 28.5t-18.5 69.5z" />
<glyph unicode="/" horiz-adv-x="757" d="M12 -37l844 1561l100 -37l-839 -1561z" />
<glyph unicode="0" d="M139 559q4 80 17 166q14 106 37.5 200.5t69.5 199t106.5 178t157 123t212.5 49.5q98 0 172 -33t116 -92.5t67.5 -131t32 -160.5t3 -168t-15.5 -165q-14 -106 -37.5 -200.5t-71 -199t-107.5 -178t-156.5 -123t-213.5 -49.5q-98 0 -171.5 33t-115.5 92.5t-68 131t-32 159.5 t-2 168zM274.5 570.5q-4.5 -74.5 4 -167t34 -159t85 -112.5t147.5 -46t159.5 46t116.5 112.5t79 160t50.5 166t28.5 154.5q10 82 15 154.5t-3 166t-34.5 160t-85 112.5t-146.5 46t-159.5 -46t-117 -112.5t-80 -159t-51 -167t-26.5 -154.5q-12 -80 -16.5 -154.5z" />
<glyph unicode="1" d="M356 1157l402 293h104l-205 -1450h-122l180 1278h-2l-293 -215z" />
<glyph unicode="2" d="M84 0l20 143l625 576q74 66 116 109.5t88 118.5t56 147q18 123 -52.5 196.5t-197.5 73.5q-111 0 -198.5 -65.5t-126.5 -172.5l-142 15q59 164 187.5 249t300.5 85q174 0 282.5 -100.5t83.5 -270.5q-14 -104 -78.5 -207.5t-124 -162t-171.5 -159.5l-516 -464h761l-16 -111 h-897z" />
<glyph unicode="3" d="M121 260l139 43q25 -109 90.5 -163t184.5 -54q156 0 253 89t115 226q20 150 -83 224.5t-259 74.5h-53l18 123h62q133 0 237.5 69t122.5 206q16 117 -46 191.5t-183 74.5q-88 0 -167 -45t-132 -125l-109 66q147 215 422 215q176 0 276.5 -96.5t75.5 -276.5 q-16 -121 -97 -212t-208 -124l-2 -4q135 -25 206 -128.5t52 -242.5q-27 -180 -160 -298t-348 -118q-339 0 -407 285z" />
<glyph unicode="4" d="M96 356l21 146l714 948h170l-139 -983h221l-16 -111h-221l-49 -356h-123l49 356h-627zM223 467h516l119 848h-4z" />
<glyph unicode="5" d="M115 221l137 64q25 -84 103.5 -141.5t174.5 -57.5q117 0 236 93t141 253q23 158 -67 267.5t-244 109.5q-147 0 -301 -98l117 739h716l-16 -111h-598l-72 -460q86 41 217 41q203 0 307.5 -139.5t75.5 -340.5q-31 -219 -190.5 -342t-337.5 -123q-303 0 -399 246z" />
<glyph unicode="6" d="M117 426q10 70 45 145.5t62.5 116.5t78.5 109l485 653h156l-485 -639h4q80 61 223 61q193 0 300.5 -129t80.5 -317q-27 -197 -179.5 -324t-359 -127t-322.5 127t-89 324zM252 426q-20 -150 60.5 -245t232.5 -95q150 0 257 94t130 246q20 141 -65 240.5t-226 99.5 t-255 -99.5t-134 -240.5z" />
<glyph unicode="7" d="M193 0l776 1339h-697l17 111h823l-16 -111l-766 -1339h-137z" />
<glyph unicode="8" d="M141 403q18 135 107.5 240t226.5 133v2q-98 29 -149.5 122t-36.5 198q25 168 152.5 272.5t297.5 104.5q172 0 270.5 -105.5t73.5 -271.5q-14 -104 -92 -197.5t-184 -122.5v-2q131 -29 190.5 -132t40.5 -241q-27 -193 -171 -310.5t-338.5 -117.5t-304.5 117.5t-83 310.5z M276 403q-18 -133 56 -225t213 -92t239.5 92t118.5 225q20 139 -58.5 228.5t-211.5 89.5t-235 -88.5t-122 -229.5zM424 1098q-16 -111 47.5 -189t178 -78t198.5 78t100 189q16 119 -47 192.5t-176 73.5q-115 0 -200 -73.5t-101 -192.5z" />
<glyph unicode="9" d="M201 1024q27 197 179 324t359 127t323 -127t89 -324q-10 -70 -46 -147.5t-59.5 -112.5t-78.5 -111l-486 -653h-155l485 639h-4q-82 -61 -223 -61q-193 0 -301.5 129t-81.5 317zM336 1024q-20 -141 65.5 -240.5t227 -99.5t254 99.5t133.5 240.5q23 152 -59.5 246 t-231.5 94q-152 0 -260.5 -95t-128.5 -245z" />
<glyph unicode=":" horiz-adv-x="532" d="M180 86q6 41 39 69.5t74 28.5t65.5 -28.5t18.5 -69.5t-39 -69.5t-74 -28.5t-65.5 28.5t-18.5 69.5zM289 860q6 41 38.5 69.5t73.5 28.5t66 -28.5t18.5 -69.5t-39 -69.5t-73.5 -28.5t-65.5 28.5t-18.5 69.5z" />
<glyph unicode=";" horiz-adv-x="532" d="M63 -283l201 467h144l-224 -467h-121zM289 860q6 41 38.5 69.5t73.5 28.5t66 -28.5t18.5 -69.5t-39 -69.5t-73.5 -28.5t-65.5 28.5t-18.5 69.5z" />
<glyph unicode="&#x3c;" horiz-adv-x="1363" d="M248 571l14 99l1096 479l-15 -102l-976 -426l856 -426l-15 -103z" />
<glyph unicode="=" horiz-adv-x="1363" d="M219 424l14 98h1045l-14 -98h-1045zM260 719l14 98h1045l-14 -98h-1045z" />
<glyph unicode="&#x3e;" horiz-adv-x="1363" d="M180 92l15 103l979 426l-859 426l15 102l960 -479l-14 -99z" />
<glyph unicode="?" horiz-adv-x="948" d="M258 1155q49 156 171 244t276 88q166 0 258 -94.5t69 -257.5q-14 -94 -58 -167t-99.5 -120t-110.5 -90t-98 -105.5t-54 -140.5l-18 -131h-123l25 172q10 76 52 137.5t95 106.5l107 90q53 45 94 106.5t51 134.5q16 111 -39 179.5t-166 68.5q-104 0 -184 -64.5t-117 -172.5 zM395 86q6 41 39 69.5t74 28.5t65.5 -28.5t18.5 -69.5t-39 -69.5t-74 -28.5t-65.5 28.5t-18.5 69.5z" />
<glyph unicode="@" horiz-adv-x="1638" d="M193 727q45 319 295.5 539.5t568.5 220.5q299 0 475 -176t139 -439q-35 -248 -210 -426t-355 -178q-55 0 -85 36t-22 102h-4q-55 -55 -133 -96.5t-151 -41.5q-133 0 -192.5 86t-41.5 215q33 229 193.5 411.5t373.5 182.5q74 0 127.5 -41t65.5 -129h4l68 131h123 l-283 -594q-31 -63 -35 -98q-10 -53 45 -53q109 0 243 161.5t159 331.5q31 223 -123 370t-391 147q-274 0 -490.5 -198t-253.5 -464q-39 -274 126 -470t435 -196q152 0 306.5 76t252.5 195h119q-117 -168 -307.5 -268.5t-384.5 -100.5q-330 0 -516 221t-141 543zM600 573 q-10 -86 29 -140t116 -54q135 0 263.5 158.5t148.5 306.5q29 209 -137 209q-145 0 -270 -159t-150 -321z" />
<glyph unicode="A" horiz-adv-x="1402" d="M10 0l838 1450h139l406 -1450h-152l-104 385h-768l-217 -385h-142zM440 508h666l-217 795z" />
<glyph unicode="B" horiz-adv-x="1290" d="M199 0l204 1450h418q94 0 166 -14.5t138.5 -53.5t95.5 -118q18 -51 18 -117q0 -38 -6 -80q-16 -115 -94 -195.5t-207 -105.5l-2 -4q143 -10 219 -108q60 -77 60 -186q0 -30 -5 -62q-16 -119 -74.5 -203t-142.5 -126t-163 -59.5t-162 -17.5h-463zM350 123h309 q113 0 195 27.5t125 73.5t63.5 89t26.5 88q4 27 4 52q0 111 -76 173q-92 75 -235 74h-330zM451 823h280q186 0 270 76t97 168q4 27 4 52q0 209 -283 208h-299z" />
<glyph unicode="C" horiz-adv-x="1441" d="M207 725q47 334 286.5 548t569.5 214q324 0 467 -227l-123 -93q-51 96 -148.5 146.5t-211.5 50.5q-279 0 -473.5 -181.5t-231.5 -457.5q-8 -59 -8 -114q0 -201 111 -344q142 -181 421 -181q119 0 246 57.5t213 167.5l100 -84q-229 -264 -577 -264q-330 0 -509 214 q-142 169 -142 414q0 65 10 134z" />
<glyph unicode="D" horiz-adv-x="1517" d="M180 0l205 1450h449q154 0 274.5 -36t193 -89t120.5 -128t68.5 -141.5t27.5 -141.5q5 -56 4 -92v-22q-2 -40 -6 -75q-6 -37 -14.5 -75t-37 -114.5t-67.5 -142t-108.5 -140.5t-157 -128t-218.5 -89t-284 -36h-449zM332 123h278q305 0 516 151.5t254 450.5q8 59 8 112 q0 217 -135 339q-168 152 -473 151h-278z" />
<glyph unicode="E" horiz-adv-x="1214" d="M199 0l204 1450h887l-18 -123h-752l-71 -516h704l-18 -123h-705l-80 -565h785l-17 -123h-919z" />
<glyph unicode="F" horiz-adv-x="1138" d="M199 0l204 1450h869l-19 -123h-733l-71 -516h681l-18 -123h-682l-96 -688h-135z" />
<glyph unicode="G" horiz-adv-x="1593" d="M207 725q47 334 286.5 548t569.5 214q326 0 493 -201l-112 -102q-53 80 -166 130t-231 50q-279 0 -473.5 -181.5t-231.5 -457.5q-8 -59 -8 -114q0 -201 111 -344q142 -181 421 -181q260 0 418 86l68 487h-348l18 123h483l-98 -688q-246 -131 -559 -131q-330 0 -509 214 q-142 169 -142 414q0 65 10 134z" />
<glyph unicode="H" horiz-adv-x="1478" d="M199 0l204 1450h136l-90 -639h811l90 639h135l-205 -1450h-135l96 688h-811l-96 -688h-135z" />
<glyph unicode="I" horiz-adv-x="532" d="M199 0l204 1450h136l-205 -1450h-135z" />
<glyph unicode="J" horiz-adv-x="987" d="M51 260l139 25q18 -199 213 -199q262 0 306 307l149 1057h135l-145 -1024q-10 -66 -21.5 -117t-44 -119.5t-79 -114.5t-129 -79t-189.5 -33q-154 0 -238 79t-96 218z" />
<glyph unicode="K" horiz-adv-x="1251" d="M199 0l204 1450h136l-90 -639h12l792 639h187l-828 -664l664 -786h-195l-630 750h-13l-104 -750h-135z" />
<glyph unicode="L" horiz-adv-x="1024" d="M199 0l204 1450h136l-189 -1327h676l-16 -123h-811z" />
<glyph unicode="M" horiz-adv-x="1820" d="M184 0l205 1450h203l356 -1217l701 1217h192l-205 -1450h-135l180 1278h-4l-733 -1278h-59l-381 1278h-4l-181 -1278h-135z" />
<glyph unicode="N" horiz-adv-x="1593" d="M199 0l204 1450h175l702 -1270h4l180 1270h135l-204 -1450h-174l-705 1270h-4l-178 -1270h-135z" />
<glyph unicode="O" horiz-adv-x="1708" d="M207 725q47 334 286.5 548t569.5 214t510 -214q143 -170 143 -415q0 -64 -10 -133q-47 -334 -287.5 -548t-570.5 -214t-509 214q-142 169 -142 414q0 65 10 134zM342 725q-8 -59 -8 -114q0 -201 111 -344q142 -181 421 -181t472.5 181.5t232.5 457.5q8 57 7 110 q0 204 -112 348q-141 181 -419.5 181t-473 -181.5t-231.5 -457.5z" />
<glyph unicode="P" horiz-adv-x="1175" d="M199 0l204 1450h418q66 0 126.5 -10t119.5 -38t99 -69t60 -109q12 -42 12 -92q0 -31 -5 -65q-27 -186 -166 -282.5t-324 -96.5h-313l-96 -688h-135zM449 811h307q129 0 226 61.5t116 194.5q3 24 3 45q0 97 -68 151q-83 65 -214 64h-299z" />
<glyph unicode="Q" horiz-adv-x="1708" d="M209 743q45 322 277.5 533t562 211t502.5 -211q137 -167 138 -404q0 -62 -10 -129q-27 -199 -151.5 -377t-296.5 -239l-2 -4h452l-16 -123h-799q-152 0 -281.5 54.5t-222 149.5t-134.5 235q-27 91 -27 193q0 54 8 111zM344 743q-7 -51 -7 -98q0 -197 122 -342 q152 -180 420 -180q266 0 448 182t217 438q8 58 8 111q0 197 -107 335q-136 175 -412.5 175t-464 -175.5t-224.5 -445.5z" />
<glyph unicode="R" horiz-adv-x="1214" d="M199 0l204 1450h381q39 0 66 -1t84 -8t98 -20.5t90 -42t77 -67.5t43 -102q9 -35 9 -74q0 -32 -6 -66q-45 -326 -422 -373l324 -696h-154l-311 688h-252l-96 -688h-135zM449 811h286q100 0 175 25.5t115 67.5t59.5 82t25.5 83q3 18 3 36q0 24 -5 47q-8 40 -37 82 t-96.5 67.5t-167.5 25.5h-287z" />
<glyph unicode="S" horiz-adv-x="1138" d="M135 182l139 86q84 -182 308 -182q139 0 242.5 78t121.5 207q3 22 3 42q0 55 -24 96q-34 56 -95.5 86t-137.5 54.5t-151.5 54t-135 72.5t-90.5 122q-20 51 -20 117q0 35 6 75q25 184 175.5 290.5t344.5 106.5q254 0 371 -182l-129 -84q-84 143 -262 143 q-139 0 -242.5 -71.5t-122.5 -202.5q-3 -24 -3 -46q0 -58 24 -102q33 -59 94 -91t138 -55.5t153 -51t135 -68.5t90 -118q20 -50 20 -114q0 -34 -6 -73q-27 -188 -174 -298t-334 -110q-313 0 -438 219z" />
<glyph unicode="T" horiz-adv-x="1175" d="M211 1327l18 123h1127l-19 -123h-495l-187 -1327h-135l187 1327h-496z" />
<glyph unicode="U" horiz-adv-x="1400" d="M246 332q-7 47 -8 96q0 62 12 127l127 895h135l-123 -860q-10 -70 -10 -132.5t15.5 -133t50 -120.5t103 -84t165 -34t174.5 34t127 84t84 120.5t51 133t27 132.5l122 860h136l-127 -895q-37 -258 -186.5 -425t-426.5 -167q-143 0 -242.5 49t-144.5 131.5t-61 188.5z" />
<glyph unicode="V" horiz-adv-x="1214" d="M199 1450h145l287 -1272l651 1272h143l-755 -1450h-135z" />
<glyph unicode="W" horiz-adv-x="1933" d="M215 1450h139l178 -1284h5l548 1284h172l185 -1284h4l543 1284h139l-627 -1450h-166l-184 1290h-4l-549 -1290h-166z" />
<glyph unicode="X" horiz-adv-x="1251" d="M2 0l651 762l-397 688h160l334 -590l495 590h162l-590 -688l432 -762h-168l-366 655l-551 -655h-162z" />
<glyph unicode="Y" horiz-adv-x="1175" d="M193 1450h161l340 -688l547 688h152l-650 -825l-88 -625h-135l88 625z" />
<glyph unicode="Z" horiz-adv-x="1138" d="M47 0l14 106l1020 1221h-835l18 123h1010l-17 -111l-1026 -1216h877l-16 -123h-1045z" />
<glyph unicode="[" horiz-adv-x="532" d="M106 -319l256 1818h308l-15 -98h-184l-227 -1622h184l-14 -98h-308z" />
<glyph unicode="\" horiz-adv-x="757" d="M219 1487l113 37l401 -1561l-112 -37z" />
<glyph unicode="]" horiz-adv-x="532" d="M29 -319l14 98h184l228 1622h-185l15 98h307l-256 -1818h-307z" />
<glyph unicode="^" horiz-adv-x="1363" d="M242 524l598 926h94l336 -926h-115l-285 815l-512 -815h-116z" />
<glyph unicode="_" horiz-adv-x="1024" d="M-37 -256l14 102h1024l-14 -102h-1024z" />
<glyph unicode="`" horiz-adv-x="491" d="M193 1450h163l170 -295h-102z" />
<glyph unicode="a" horiz-adv-x="1062" d="M158 256q43 317 567 317h143l9 58q4 26 4 48q0 81 -52 125q-66 56 -186 56q-164 0 -303 -106l-61 84q74 61 179 97t201 36q178 0 266 -84q68 -65 68 -186q0 -34 -6 -72l-33 -232q-37 -276 -36 -397h-115v20q0 60 10 134h-4q-129 -178 -358 -179q-137 0 -226 71 q-71 57 -71 160q0 24 4 50zM281 262q-2 -14 -3 -27q0 -63 50 -102q59 -47 143 -47q180 0 267 93t108 233l10 63h-135q-176 0 -300 -50t-140 -163z" />
<glyph unicode="b" horiz-adv-x="1251" d="M137 0l217 1548h123l-106 -768h4q68 92 179.5 141.5t225.5 49.5q217 0 337 -141q95 -112 96 -272q0 -41 -7 -85q-29 -217 -189.5 -357.5t-377.5 -140.5q-115 0 -213 49.5t-139 141.5h-4l-23 -166h-123zM313 473q-4 -30 -4 -58q0 -124 81 -216q99 -113 265 -113 q170 0 288 111.5t140 275.5q5 36 6 70q0 119 -68 206q-87 112 -257 111q-166 0 -297 -112.5t-154 -274.5z" />
<glyph unicode="c" horiz-adv-x="985" d="M176 473q31 217 191.5 357.5t377.5 140.5q209 0 328 -164l-108 -74q-96 127 -236 127q-170 0 -287.5 -111.5t-142.5 -275.5q-5 -34 -5 -65q0 -122 70 -210q87 -112 257 -112q147 0 272 131l84 -78q-162 -164 -373 -164q-217 0 -337 141q-97 113 -96 276q-1 39 5 81z" />
<glyph unicode="d" horiz-adv-x="1251" d="M176 473q31 217 191.5 357.5t377.5 140.5q115 0 213.5 -49.5t139.5 -141.5h4l106 768h123l-217 -1548h-123l23 166h-4q-68 -92 -179.5 -141.5t-226.5 -49.5q-217 0 -337 141q-97 113 -96 276q-1 39 5 81zM299 473q-5 -34 -5 -65q0 -122 70 -210q87 -112 257 -112 q166 0 296 113.5t152 273.5q4 30 4 58q0 123 -80 215q-98 114 -264 114q-170 0 -287.5 -111.5t-142.5 -275.5z" />
<glyph unicode="e" horiz-adv-x="1138" d="M178 475q29 213 182.5 354.5t360.5 141.5t306 -132q80 -106 80 -242q0 -34 -5 -69l-12 -86h-795q-2 -18 -3 -37q0 -29 6 -63q9 -55 38 -115.5t98.5 -100.5t169.5 -40q94 0 189.5 46t150.5 122l80 -76q-166 -203 -438 -203q-215 0 -327 140q-88 109 -87 268q-1 44 6 92z M311 553h672q3 21 3 41q0 101 -70 176q-83 90 -218 90q-92 0 -170.5 -40t-122 -96t-68 -101t-26.5 -70z" />
<glyph unicode="f" horiz-adv-x="606" d="M154 836l16 110h197l43 309q25 166 121 242t206 76q86 0 137 -25l-38 -106q-39 20 -109 20q-164 0 -201 -252l-37 -264h222l-17 -110h-221l-117 -836h-123l117 836h-196z" />
<glyph unicode="g" horiz-adv-x="1251" d="M100 -293l109 90q102 -178 348 -178q106 0 188 37t125 83t74 117.5t39 108.5t16 88l19 131h-4q-143 -184 -385 -184q-209 0 -338 142q-106 116 -106 272q0 35 5 71q29 201 198 343.5t378 142.5q242 0 332 -185h4l22 160h123l-125 -885q-23 -166 -89 -282.5t-156.5 -172 t-171 -77t-164.5 -21.5q-145 0 -264.5 53.5t-176.5 145.5zM313 485q-4 -28 -3 -54q0 -121 77 -211q94 -110 250 -109.5t279.5 110t146.5 264.5q4 30 4 59q0 118 -76 207q-94 110 -249.5 109.5t-280.5 -110t-148 -265.5z" />
<glyph unicode="h" horiz-adv-x="1138" d="M164 0l217 1548h123l-107 -768h4q49 82 144.5 136.5t206.5 54.5q311 0 311 -304q0 -48 -8 -104l-80 -563h-123l78 557q7 48 7 88q0 215 -202 215q-143 0 -249.5 -100.5t-133.5 -286.5l-65 -473h-123z" />
<glyph unicode="i" horiz-adv-x="491" d="M184 0l133 946h123l-133 -946h-123zM340 1321q4 39 35 65.5t69.5 26.5t61.5 -27q19 -23 19 -53q0 -6 -1 -12q-6 -39 -36.5 -65.5t-69.5 -26.5t-62 26q-18 21 -17 50q0 8 1 16z" />
<glyph unicode="j" horiz-adv-x="491" d="M-127 -473l33 108q39 -16 76 -16q90 0 127.5 54.5t50.5 150.5l157 1122h123l-155 -1112q-25 -160 -94.5 -243t-223.5 -83q-49 1 -94 19zM340 1321q4 39 35 65.5t69.5 26.5t61.5 -27q19 -23 19 -53q0 -6 -1 -12q-6 -39 -36.5 -65.5t-69.5 -26.5t-62 26q-18 21 -17 50 q0 8 1 16z" />
<glyph unicode="k" horiz-adv-x="985" d="M164 0l217 1548h123l-146 -1032l529 428h180l-549 -432l473 -512h-186l-449 500l-69 -500h-123z" />
<glyph unicode="l" horiz-adv-x="491" d="M184 0l217 1548h123l-217 -1548h-123z" />
<glyph unicode="m" horiz-adv-x="1744" d="M164 0l96 680q4 35 14.5 138.5t12.5 127.5h123q-16 -143 -15 -166h6q49 82 144.5 136.5t206.5 54.5q98 0 167.5 -51.5t88.5 -153.5q55 100 150 152.5t200 52.5q311 0 311 -304q0 -48 -8 -104l-80 -563h-123l78 557q7 48 7 88q0 215 -202 215q-106 0 -182 -56t-107.5 -125 t-41.5 -147l-76 -532h-123l80 569q6 43 6 81q0 79 -27 132q-39 78 -135 78q-143 0 -249.5 -100.5t-133.5 -286.5l-65 -473h-123z" />
<glyph unicode="n" horiz-adv-x="1138" d="M164 0l96 680q4 35 14.5 138.5t12.5 127.5h123q-16 -143 -15 -166h6q49 82 144.5 136.5t206.5 54.5q311 0 311 -304q0 -48 -8 -104l-80 -563h-123l78 557q7 48 7 88q0 215 -202 215q-143 0 -249.5 -100.5t-133.5 -286.5l-65 -473h-123z" />
<glyph unicode="o" horiz-adv-x="1216" d="M176 473q31 217 191.5 357.5t378 140.5t336.5 -141q95 -112 96 -272q0 -41 -7 -85q-29 -217 -189.5 -357.5t-377.5 -140.5t-337 141q-97 113 -96 276q-1 39 5 81zM299 473q-5 -34 -5 -65q0 -122 70 -210q87 -112 257 -112t287.5 111.5t140.5 275.5q5 36 5 70 q0 119 -68 206q-87 112 -257 111.5t-287.5 -112t-142.5 -275.5z" />
<glyph unicode="p" horiz-adv-x="1251" d="M72 -467l198 1413h123l-22 -166h4q68 92 179.5 141.5t225.5 49.5q217 0 337 -141q95 -112 96 -272q0 -41 -7 -85q-29 -217 -189.5 -357.5t-377.5 -140.5q-115 0 -213 49.5t-139 141.5h-4l-88 -633h-123zM313 473q-4 -30 -4 -58q0 -124 81 -216q99 -113 265 -113 q170 0 288 111.5t140 275.5q5 36 6 70q0 119 -68 206q-87 112 -257 111q-166 0 -297 -112.5t-154 -274.5z" />
<glyph unicode="q" horiz-adv-x="1251" d="M176 473q31 217 191.5 357.5t377.5 140.5q115 0 213.5 -49.5t139.5 -141.5h4l22 166h123l-198 -1413h-123l88 633h-4q-68 -92 -179.5 -141.5t-226.5 -49.5q-217 0 -337 141q-97 113 -96 276q-1 39 5 81zM299 473q-5 -34 -5 -65q0 -122 70 -210q87 -112 257 -112 q166 0 296 113.5t152 273.5q4 30 4 58q0 123 -80 215q-98 114 -264 114q-170 0 -287.5 -111.5t-142.5 -275.5z" />
<glyph unicode="r" horiz-adv-x="681" d="M164 0l96 680q4 35 14.5 138.5t12.5 127.5h123q-16 -143 -15 -166q131 190 328 191q29 0 70 -10l-31 -121q-25 8 -47 8q-152 0 -244 -92t-113 -240l-71 -516h-123z" />
<glyph unicode="s" horiz-adv-x="872" d="M82 168l119 74q27 -74 96.5 -115t155.5 -41q84 0 156.5 48t84.5 126q2 12 2 23q0 55 -44 87q-52 38 -133 54t-159.5 37.5t-129.5 79.5q-39 45 -39 115q0 20 4 42q18 129 125.5 201t236.5 72q244 0 307 -178l-119 -66q-53 133 -204 133q-74 0 -143.5 -42t-78.5 -109 q-2 -11 -1 -22q0 -54 43 -84q52 -36 133 -51t161 -35.5t128 -81.5q37 -47 37 -120q0 -22 -3 -47q-18 -139 -128.5 -216t-254.5 -77q-270 0 -352 193z" />
<glyph unicode="t" horiz-adv-x="681" d="M145 836l17 110h205l39 273h122l-39 -273h271l-17 -110h-270l-86 -617q-2 -14 -2 -26q0 -45 24 -72q30 -35 91 -35q63 0 143 33l-4 -111q-98 -33 -166 -33q-125 0 -174 67q-38 52 -38 129q0 23 3 48l86 617h-205z" />
<glyph unicode="u" horiz-adv-x="1138" d="M207 383l80 563h123l-78 -557q-7 -48 -7 -88q0 -215 201 -215q143 0 250 100.5t131 286.5l68 473h123l-97 -680q-6 -39 -15 -144.5t-11 -121.5h-123q16 143 14 166h-6q-49 -82 -144 -136.5t-206 -54.5q-311 0 -311 304q0 48 8 104z" />
<glyph unicode="v" horiz-adv-x="948" d="M164 946h139l201 -813l422 813h125l-506 -946h-127z" />
<glyph unicode="w" horiz-adv-x="1441" d="M164 946h135l119 -792h4l375 792h116l170 -792h4l334 792h123l-411 -946h-127l-175 774h-4l-372 -774h-127z" />
<glyph unicode="x" horiz-adv-x="985" d="M12 0l465 512l-276 434h157l211 -358l312 358h153l-395 -434l334 -512h-160l-270 428l-383 -428h-148z" />
<glyph unicode="y" horiz-adv-x="948" d="M-16 -473l26 115q76 -23 109 -23q43 0 78.5 26.5t56 55.5t45.5 76l117 219l-252 950h137l201 -796l418 796h131l-662 -1239q-104 -199 -289 -199q-50 1 -116 19z" />
<glyph unicode="z" horiz-adv-x="872" d="M55 0l11 74l673 762h-538l16 110h709l-11 -74l-671 -761h590l-17 -111h-762z" />
<glyph unicode="{" horiz-adv-x="681" d="M211 541l14 98q145 0 187 315l43 297q16 115 72.5 181.5t142.5 66.5h102l-14 -98h-47q-113 0 -142 -201l-39 -289q-12 -96 -56 -174t-76.5 -106.5t-55.5 -38.5l-2 -4q20 -12 45 -41t46.5 -105.5t6.5 -173.5l-41 -291q-25 -199 86 -198h47l-14 -98h-102q-86 0 -124 66.5 t-22 180.5l43 299q45 314 -100 314z" />
<glyph unicode="|" horiz-adv-x="704" d="M403 -567v2271h109v-2271h-109z" />
<glyph unicode="}" horiz-adv-x="681" d="M76 -319l14 98h47q113 0 142 201l38 288q10 74 37 137.5t58.5 100.5t55.5 56.5t38 25.5l2 4q-20 12 -45 41t-46.5 105.5t-6.5 172.5l41 291q25 199 -86 199h-48l15 98h102q86 0 124 -66.5t22 -181.5l-43 -299q-45 -313 100 -313l-14 -98q-143 0 -189 -316l-41 -297 q-16 -115 -72.5 -181t-142.5 -66h-102z" />
<glyph unicode="~" horiz-adv-x="1363" d="M291 561q119 184 280 184q63 0 226 -73q139 -66 192 -66q55 0 100.5 36t98.5 103l61 -65q-117 -184 -282 -184q-63 0 -226 73q-139 66 -190 66q-90 0 -201 -139z" />
<glyph unicode="&#xa1;" horiz-adv-x="757" d="M254 -455l149 1069h123l-149 -1069h-123zM408 909q6 41 38.5 70t73.5 29t65.5 -29t18.5 -70q-4 -41 -36.5 -69.5t-73.5 -28.5t-65.5 28.5t-20.5 69.5z" />
<glyph unicode="&#xa2;" d="M174 477q27 190 162 325.5t323 162.5l21 147h98l-20 -145q197 -2 313 -160l-108 -74q-86 113 -220 123l-108 -770q137 6 256 131l84 -78q-156 -158 -357 -164l-18 -141h-98l20 148q-184 27 -280.5 164.5t-67.5 330.5zM297 477q-18 -137 47.5 -245.5t194.5 -135.5l106 758 q-139 -20 -234.5 -128t-113.5 -249z" />
<glyph unicode="&#xa3;" d="M119 0l16 111h215l82 589h-194l16 111h195l32 240q25 164 149 294t341 130q166 0 276 -115l-94 -98q-88 102 -203 102q-141 0 -228 -94t-104 -205l-34 -254h338l-17 -111h-338l-82 -589h502l-16 -111h-852z" />
<glyph unicode="&#xa4;" d="M70 291l133 112q-104 135 -78 322q25 188 168 322l-100 112l79 76l101 -115q156 109 332 109q178 0 303 -109l133 115l59 -76l-133 -112q102 -131 78 -322q-29 -190 -168 -322l100 -112l-80 -76l-100 115q-156 -109 -334 -109q-176 0 -301 109l-133 -115zM248 725 q-23 -162 75.5 -277.5t256 -115.5t288.5 115.5t154 277.5q23 164 -74.5 278.5t-257.5 114.5t-289.5 -114.5t-152.5 -278.5z" />
<glyph unicode="&#xa5;" d="M168 369l14 98h348l23 158l-14 32h-330l14 99h275l-293 694h139l293 -705l500 705h133l-490 -694h275l-15 -99h-329l-23 -32l-22 -158h348l-15 -98h-348l-51 -369h-135l51 369h-348z" />
<glyph unicode="&#xa6;" horiz-adv-x="704" d="M403 -395v792h107v-792h-107zM403 739v795h107v-795h-107z" />
<glyph unicode="&#xa7;" d="M125 -49l133 61q43 -184 240 -184q100 0 182 53t94 146q10 76 -44 132t-139 95t-168 84t-135 122t-38 181q25 172 254 264q-152 100 -131 260q20 150 146 236t280 86q111 0 193.5 -47t107.5 -146l-129 -69q-41 139 -195 139q-100 0 -178 -52t-90 -147q-8 -61 28.5 -110 t97 -80t132.5 -70t131 -78t94 -105.5t23 -152.5q-25 -170 -219 -270q141 -92 116 -252q-23 -158 -147.5 -250t-280.5 -92q-135 0 -232 61.5t-126 184.5zM385 645q-6 -49 10.5 -85t39 -53.5t65.5 -41.5l194 -107q66 33 120 85.5t63 111.5q16 119 -123 201l-142 84 q-207 -66 -227 -195z" />
<glyph unicode="&#xa8;" horiz-adv-x="491" d="M141 1335q4 41 37 70t74 29t65.5 -29t20.5 -70q-6 -41 -39 -69.5t-74 -28.5t-65.5 28.5t-18.5 69.5zM530 1335q4 41 37 70t74 29t65.5 -29t20.5 -70q-6 -41 -39 -69.5t-74 -28.5t-65.5 28.5t-18.5 69.5z" />
<glyph unicode="&#xa9;" horiz-adv-x="1638" d="M160 725q45 315 299 538.5t569 223.5t508 -223.5t147.5 -538.5t-300.5 -538.5t-570 -223.5t-506.5 223.5t-146.5 538.5zM270 725q-39 -270 125 -460.5t434.5 -190.5t487.5 190.5t256 460.5q37 270 -127 460.5t-434.5 190.5t-487.5 -190.5t-254 -460.5zM502 725 q29 207 164 338t340 131q150 0 242.5 -82t92.5 -229h-110q-8 90 -69.5 150.5t-168.5 62.5q-152 0 -255 -106.5t-125.5 -264.5t51 -264.5t225.5 -106.5q106 0 187 61.5t110 151.5h110q-41 -147 -156.5 -229t-265.5 -82q-205 0 -304 131t-68 338z" />
<glyph unicode="&#xaa;" horiz-adv-x="690" d="M215 1034q29 199 340 199h131l2 18q6 70 -25.5 104t-125.5 34q-102 0 -203 -72l-41 78q109 80 278 80q125 0 178.5 -51.5t36.5 -172.5l-22 -164q-20 -139 -21 -206h-100q-2 16 2 52t4 42h-4q-80 -106 -227 -107q-96 0 -155.5 41t-47.5 125zM313 1038q-4 -35 37 -59.5 t99 -24.5q98 0 155.5 56.5t67.5 122.5l2 14h-78q-269 0 -283 -109z" />
<glyph unicode="&#xab;" horiz-adv-x="985" d="M197 485l340 416l77 -59l-288 -357l192 -360l-98 -55zM537 485l340 416l77 -59l-288 -357l192 -360l-98 -55z" />
<glyph unicode="&#xac;" horiz-adv-x="1363" d="M260 719l14 98h1045l-76 -543h-98l61 445h-946z" />
<glyph unicode="&#xad;" horiz-adv-x="681" d="M150 430l14 111h506l-15 -111h-505z" />
<glyph unicode="&#xae;" horiz-adv-x="1638" d="M160 725q45 315 299 538.5t569 223.5t508 -223.5t147.5 -538.5t-300.5 -538.5t-570 -223.5t-506.5 223.5t-146.5 538.5zM270 725q-39 -270 125 -460.5t434.5 -190.5t487.5 190.5t256 460.5q37 270 -127 460.5t-434.5 190.5t-487.5 -190.5t-254 -460.5zM584 289l123 878 h337q145 0 202 -61.5t40 -181.5q-29 -213 -256 -250l209 -385h-125l-209 385h-157l-54 -385h-110zM762 772h141q57 0 93 4t79 17.5t67.5 46t33.5 84.5q10 78 -42.5 111.5t-134.5 33.5h-196z" />
<glyph unicode="&#xaf;" horiz-adv-x="491" d="M150 1241l14 98h541l-15 -98h-540z" />
<glyph unicode="&#xb0;" horiz-adv-x="819" d="M281 1182q16 123 114.5 208t221 85t196.5 -85t57 -208q-16 -125 -114.5 -211t-221 -86t-196 86t-57.5 211zM379 1180q-10 -82 38 -139.5t130 -57.5t148.5 57.5t76.5 139.5t-39 139t-131 57t-147.5 -57t-75.5 -139z" />
<glyph unicode="&#xb1;" horiz-adv-x="1363" d="M182 98l13 99h1028l-13 -99h-1028zM254 670l14 98h467l51 375h99l-51 -375h479l-15 -98h-479l-53 -375h-98l53 375h-467z" />
<glyph unicode="&#xb2;" horiz-adv-x="692" d="M131 592l12 88l400 344q55 47 80.5 71.5t52 65.5t33.5 86q8 57 -34 93t-122 36q-135 0 -193 -121l-102 9q41 109 131 160t182 51q123 0 193 -60.5t55 -163.5q-8 -61 -48 -121.5t-77 -96.5t-108 -95l-295 -248h450l-12 -98h-598z" />
<glyph unicode="&#xb3;" horiz-adv-x="692" d="M162 762l102 37q31 -121 172 -121q70 0 134.5 47t72.5 109q12 90 -46 127.5t-161 37.5h-35l13 99h47q76 0 141.5 38t75.5 115q8 53 -31 89t-110 36q-117 0 -195 -102l-72 51q115 150 281 150q115 0 183.5 -60.5t53.5 -161.5q-8 -68 -64 -123t-132 -79v-4q86 -12 129 -74 t33 -146q-16 -113 -109.5 -180t-222.5 -67q-217 0 -260 182z" />
<glyph unicode="&#xb4;" horiz-adv-x="491" d="M289 1155l256 295h164l-318 -295h-102z" />
<glyph unicode="&#xb5;" horiz-adv-x="1138" d="M88 -467l199 1413h123l-78 -557q-45 -303 194 -303q143 0 250 100.5t131 286.5l68 473h123l-97 -680q-6 -39 -15 -144.5t-11 -121.5h-123q16 143 14 166h-6q-49 -82 -144 -136.5t-206 -54.5q-154 0 -227 78l-74 -520h-121z" />
<glyph unicode="&#xb6;" horiz-adv-x="1228" d="M270 1049q27 193 162 297t352 104h465l-241 -1708h-123l227 1610h-252l-227 -1610h-123l129 920q-178 0 -285 113.5t-84 273.5z" />
<glyph unicode="&#xb7;" horiz-adv-x="532" d="M260 651q4 41 37 70t74 29t65.5 -29t20.5 -70q-6 -41 -39 -69.5t-74 -28.5t-65.5 28.5t-18.5 69.5z" />
<glyph unicode="&#xb8;" horiz-adv-x="491" d="M12 -399l37 65q61 -35 152 -35q47 0 91 22.5t50 65.5t-25.5 64.5t-76.5 21.5q-49 0 -93 -16l-28 31l153 180h78l-114 -131l4 -4q27 14 65 14q70 0 114 -39t36 -108q-12 -86 -88 -130t-166 -44q-103 0 -189 43z" />
<glyph unicode="&#xb9;" horiz-adv-x="692" d="M317 1286l250 176h111l-121 -870h-111l107 760l-195 -135z" />
<glyph unicode="&#xba;" horiz-adv-x="790" d="M233 1171q20 135 121 219.5t246 84.5q143 0 224 -83t61 -221q-18 -133 -123 -218t-246 -85q-145 0 -223 84t-60 219zM332 1171q-10 -88 44 -152.5t150 -64.5q98 0 173 63.5t87 153.5q14 94 -41 156t-157 62q-96 0 -170 -65t-86 -153z" />
<glyph unicode="&#xbb;" horiz-adv-x="985" d="M168 129l287 356l-191 361l98 55l222 -416l-338 -415zM508 129l287 356l-191 361l98 55l222 -416l-338 -415z" />
<glyph unicode="&#xbc;" horiz-adv-x="1593" d="M233 -12l1149 1532l86 -58l-1151 -1532zM254 1286l250 176h110l-120 -870h-111l106 760l-194 -135zM918 209l14 92l459 567h120l-79 -561h131l-15 -98h-131l-28 -209h-111l29 209h-389zM1042 307h279l57 414h-4z" />
<glyph unicode="&#xbd;" horiz-adv-x="1593" d="M215 -12l1149 1532l86 -58l-1151 -1532zM238 1286l249 176h111l-121 -870h-110l106 760l-194 -135zM938 0l12 88l402 344q55 47 79.5 71.5t51 65.5t33.5 86q8 57 -33 93t-121 36q-135 0 -193 -120l-104 8q41 109 132 160t183 51q121 0 190.5 -60.5t55.5 -163.5 q-8 -61 -48 -122.5t-76 -95t-107 -95.5l-295 -248h450l-14 -98h-598z" />
<glyph unicode="&#xbe;" horiz-adv-x="1593" d="M147 762l105 37q31 -121 172 -121q70 0 134.5 47t72.5 109q12 90 -46.5 127.5t-160.5 37.5h-35l12 99h48q197 14 217 153q8 53 -31 89t-111 36q-117 0 -194 -102l-72 51q115 150 281 150q115 0 183.5 -60.5t53.5 -161.5q-8 -68 -64.5 -123t-131.5 -79v-4q86 -12 129 -74 t32 -146q-16 -113 -109 -180t-222 -67q-216 0 -263 182zM338 -12l1149 1532l86 -58l-1151 -1532zM950 209l15 92l458 567h121l-80 -561h131l-14 -98h-131l-29 -209h-110l28 209h-389zM1071 307h279l57 414h-4z" />
<glyph unicode="&#xbf;" horiz-adv-x="948" d="M55 -139q14 94 58.5 166.5t99.5 120t110.5 90.5t98.5 105.5t53 139.5l19 131h122l-24 -172q-10 -76 -51 -137t-95.5 -106t-107.5 -90.5t-94 -106.5t-51 -135q-16 -111 39 -179.5t165 -68.5q104 0 184.5 64.5t116.5 173.5l131 -17q-49 -154 -170.5 -243t-275.5 -89 q-166 0 -258.5 94.5t-69.5 258.5zM496 909q6 41 38.5 70t73.5 29t65.5 -29t18.5 -70q-4 -41 -36.5 -69.5t-73.5 -28.5t-65.5 28.5t-20.5 69.5z" />
<glyph unicode="&#xc0;" horiz-adv-x="1402" d="M10 0l838 1450h139l406 -1450h-152l-104 385h-768l-217 -385h-142zM440 508h666l-217 795zM702 1835h164l172 -295h-102z" />
<glyph unicode="&#xc1;" horiz-adv-x="1402" d="M10 0l838 1450h139l406 -1450h-152l-104 385h-768l-217 -385h-142zM440 508h666l-217 795zM801 1540l254 295h164l-316 -295h-102z" />
<glyph unicode="&#xc2;" horiz-adv-x="1402" d="M10 0l838 1450h139l406 -1450h-152l-104 385h-768l-217 -385h-142zM440 508h666l-217 795zM627 1540l262 295h143l180 -295h-133l-135 221l-196 -221h-121z" />
<glyph unicode="&#xc3;" horiz-adv-x="1402" d="M10 0l838 1450h139l406 -1450h-152l-104 385h-768l-217 -385h-142zM440 508h666l-217 795zM604 1575q20 82 76 139q59 70 137 70q57 0 148 -51q86 -47 122 -47q78 0 111 98h74q-20 -82 -68 -142q-57 -68 -133 -67q-45 0 -147 49q-98 49 -127 49q-82 0 -119 -98h-74z" />
<glyph unicode="&#xc4;" horiz-adv-x="1402" d="M10 0l838 1450h139l406 -1450h-152l-104 385h-768l-217 -385h-142zM440 508h666l-217 795zM651 1720q6 41 39 70t74 29t65.5 -29t18.5 -70t-39 -69.5t-74 -28.5t-65.5 28.5t-18.5 69.5zM1040.5 1720q6.5 41 39 70t73.5 29t65.5 -29t18.5 -70t-39 -69.5t-74 -28.5 t-65.5 28.5t-18 69.5z" />
<glyph unicode="&#xc5;" horiz-adv-x="1402" d="M10 0l838 1450h139l406 -1450h-152l-104 385h-768l-217 -385h-142zM440 508h666l-217 795zM754 1714q10 80 74.5 137.5t144.5 57.5q78 0 125 -59.5t35 -137.5q-10 -76 -74 -134t-141 -58q-80 0 -128 58t-36 136zM825 1712q-6 -51 23 -85t78 -34q51 0 89 35t46 86 q6 51 -22.5 86t-78 35t-88.5 -36t-47 -87z" />
<glyph unicode="&#xc6;" horiz-adv-x="1896" d="M-10 0l1149 1450h825l-18 -123h-600l-72 -516h565l-18 -123h-566l-79 -565h616l-16 -123h-752l53 385h-639l-305 -385h-143zM537 508h559l114 819h-24z" />
<glyph unicode="&#xc7;" horiz-adv-x="1441" d="M207 725q47 334 286.5 548t569.5 214q324 0 467 -227l-123 -93q-51 96 -148.5 146.5t-211.5 50.5q-279 0 -473.5 -181.5t-231.5 -457.5q-39 -276 103.5 -457.5t420.5 -181.5q119 0 246 57.5t213 167.5l100 -84q-229 -264 -577 -264q-37 0 -53 2l-84 -96l4 -4q27 14 65 14 q70 0 114 -39t36 -108q-12 -86 -88 -130t-166 -44q-102 0 -189 43l37 65q61 -35 152 -35q47 0 91 22.5t50 65.5t-25.5 64.5t-76.5 21.5q-49 0 -92 -16l-29 31l131 153q-274 39 -417.5 246t-100.5 506z" />
<glyph unicode="&#xc8;" horiz-adv-x="1214" d="M199 0l204 1450h887l-18 -123h-752l-71 -516h704l-18 -123h-705l-80 -565h785l-17 -123h-919zM608 1835h164l172 -295h-102z" />
<glyph unicode="&#xc9;" horiz-adv-x="1214" d="M199 0l204 1450h887l-18 -123h-752l-71 -516h704l-18 -123h-705l-80 -565h785l-17 -123h-919zM707 1540l254 295h163l-315 -295h-102z" />
<glyph unicode="&#xca;" horiz-adv-x="1214" d="M199 0l204 1450h887l-18 -123h-752l-71 -516h704l-18 -123h-705l-80 -565h785l-17 -123h-919zM532 1540l263 295h143l180 -295h-133l-135 221l-197 -221h-121z" />
<glyph unicode="&#xcb;" horiz-adv-x="1214" d="M199 0l204 1450h887l-18 -123h-752l-71 -516h704l-18 -123h-705l-80 -565h785l-17 -123h-919zM557 1720q6 41 39 70t74 29t65.5 -29t18.5 -70t-39 -69.5t-74 -28.5t-65.5 28.5t-18.5 69.5zM946 1720q6 41 39 70t74 29t65.5 -29t18.5 -70t-39 -69.5t-74 -28.5t-65.5 28.5 t-18.5 69.5z" />
<glyph unicode="&#xcc;" horiz-adv-x="532" d="M199 0l204 1450h136l-205 -1450h-135zM266 1835h164l172 -295h-102z" />
<glyph unicode="&#xcd;" horiz-adv-x="532" d="M199 0l204 1450h136l-205 -1450h-135zM365 1540l253 295h164l-315 -295h-102z" />
<glyph unicode="&#xce;" horiz-adv-x="532" d="M190 1540l263 295h143l180 -295h-133l-135 221l-197 -221h-121zM199 0l204 1450h136l-205 -1450h-135z" />
<glyph unicode="&#xcf;" horiz-adv-x="532" d="M199 0l204 1450h136l-205 -1450h-135zM215 1720q6 41 39 70t74 29t65.5 -29t18.5 -70t-39 -69.5t-74 -28.5t-65.5 28.5t-18.5 69.5zM604 1720q6 41 39 70t74 29t65.5 -29t18.5 -70t-39 -69.5t-74 -28.5t-65.5 28.5t-18.5 69.5z" />
<glyph unicode="&#xd0;" horiz-adv-x="1517" d="M119 700l16 111h160l90 639h449q154 0 274.5 -36t193 -89t120.5 -128t68.5 -141.5t27 -141t4.5 -114.5t-6 -75q-6 -37 -14.5 -75t-37 -114.5t-67.5 -142t-108.5 -140.5t-157 -128t-218.5 -89t-284 -36h-449l99 700h-160zM332 123h278q305 0 516 151.5t254 450.5 q41 299 -127 450.5t-473 151.5h-278l-72 -516h528l-16 -111h-528z" />
<glyph unicode="&#xd1;" horiz-adv-x="1593" d="M199 0l204 1450h175l702 -1270h4l180 1270h135l-204 -1450h-174l-705 1270h-4l-178 -1270h-135zM698 1575q20 82 76 139q59 70 137 70q57 0 148 -51q86 -47 123 -47q78 0 110 98h74q-20 -82 -68 -142q-57 -68 -133 -67q-45 0 -147 49q-98 49 -127 49q-82 0 -119 -98h-74z " />
<glyph unicode="&#xd2;" horiz-adv-x="1708" d="M207 725q47 334 286.5 548t569.5 214t510 -214t133 -548t-287.5 -548t-570.5 -214t-509 214t-132 548zM342 725q-39 -276 103.5 -457.5t421 -181.5t472 181.5t232.5 457.5q37 276 -104.5 457.5t-420 181.5t-473 -181.5t-231.5 -457.5zM854 1835h164l172 -295h-103z" />
<glyph unicode="&#xd3;" horiz-adv-x="1708" d="M207 725q47 334 286.5 548t569.5 214t510 -214t133 -548t-287.5 -548t-570.5 -214t-509 214t-132 548zM342 725q-39 -276 103.5 -457.5t421 -181.5t472 181.5t232.5 457.5q37 276 -104.5 457.5t-420 181.5t-473 -181.5t-231.5 -457.5zM952 1540l254 295h164l-315 -295 h-103z" />
<glyph unicode="&#xd4;" horiz-adv-x="1708" d="M207 725q47 334 286.5 548t569.5 214t510 -214t133 -548t-287.5 -548t-570.5 -214t-509 214t-132 548zM342 725q-39 -276 103.5 -457.5t421 -181.5t472 181.5t232.5 457.5q37 276 -104.5 457.5t-420 181.5t-473 -181.5t-231.5 -457.5zM778 1540l262 295h144l180 -295 h-133l-135 221l-197 -221h-121z" />
<glyph unicode="&#xd5;" horiz-adv-x="1708" d="M207 725q47 334 286.5 548t569.5 214t510 -214t133 -548t-287.5 -548t-570.5 -214t-509 214t-132 548zM342 725q-39 -276 103.5 -457.5t421 -181.5t472 181.5t232.5 457.5q37 276 -104.5 457.5t-420 181.5t-473 -181.5t-231.5 -457.5zM756 1575q20 82 75 139 q59 70 138 70q57 0 147 -51q86 -47 123 -47q78 0 111 98h73q-20 -82 -67 -142q-57 -68 -133 -67q-45 0 -148 49q-98 49 -127 49q-82 0 -119 -98h-73z" />
<glyph unicode="&#xd6;" horiz-adv-x="1708" d="M207 725q47 334 286.5 548t569.5 214t510 -214t133 -548t-287.5 -548t-570.5 -214t-509 214t-132 548zM342 725q-39 -276 103.5 -457.5t421 -181.5t472 181.5t232.5 457.5q37 276 -104.5 457.5t-420 181.5t-473 -181.5t-231.5 -457.5zM803 1720q6 41 38.5 70t73.5 29 t66 -29t18.5 -70t-39 -69.5t-73.5 -28.5t-65.5 28.5t-18.5 69.5zM1192 1720q6 41 39 70t74 29t65.5 -29t18 -70t-39 -69.5t-73.5 -28.5t-65.5 28.5t-18.5 69.5z" />
<glyph unicode="&#xd7;" horiz-adv-x="1363" d="M236 215l466 406l-350 405l80 70l348 -406l465 406l58 -70l-463 -405l348 -406l-80 -70l-346 408l-465 -408z" />
<glyph unicode="&#xd8;" horiz-adv-x="1708" d="M143 31l181 168q-162 211 -117 526q47 334 286.5 548t569.5 214q281 0 459 -162l174 166l61 -64l-176 -165q170 -213 125 -537q-47 -334 -287.5 -548t-570.5 -214q-289 0 -465 170l-176 -166zM342 725q-37 -258 84 -430l993 936q-143 133 -372 133q-279 0 -473.5 -181.5 t-231.5 -457.5zM483 227q137 -141 383 -141q279 0 472.5 181.5t232.5 457.5q37 266 -92 440z" />
<glyph unicode="&#xd9;" horiz-adv-x="1400" d="M245.5 331.5q-16.5 106.5 4.5 223.5l127 895h135l-123 -860q-10 -70 -10 -132.5t15.5 -133t50 -120.5t103 -84t165 -34t174.5 34t127 84t84 120.5t51 133t27 132.5l122 860h136l-127 -895q-37 -258 -186.5 -425t-426.5 -167q-143 0 -242.5 49t-144.5 131t-61.5 188.5z M700 1835h164l172 -295h-102z" />
<glyph unicode="&#xda;" horiz-adv-x="1400" d="M245.5 331.5q-16.5 106.5 4.5 223.5l127 895h135l-123 -860q-10 -70 -10 -132.5t15.5 -133t50 -120.5t103 -84t165 -34t174.5 34t127 84t84 120.5t51 133t27 132.5l122 860h136l-127 -895q-37 -258 -186.5 -425t-426.5 -167q-143 0 -242.5 49t-144.5 131t-61.5 188.5z M799 1540l254 295h164l-316 -295h-102z" />
<glyph unicode="&#xdb;" horiz-adv-x="1400" d="M245.5 331.5q-16.5 106.5 4.5 223.5l127 895h135l-123 -860q-10 -70 -10 -132.5t15.5 -133t50 -120.5t103 -84t165 -34t174.5 34t127 84t84 120.5t51 133t27 132.5l122 860h136l-127 -895q-37 -258 -186.5 -425t-426.5 -167q-143 0 -242.5 49t-144.5 131t-61.5 188.5z M625 1540l262 295h143l180 -295h-133l-135 221l-197 -221h-120z" />
<glyph unicode="&#xdc;" horiz-adv-x="1400" d="M245.5 331.5q-16.5 106.5 4.5 223.5l127 895h135l-123 -860q-10 -70 -10 -132.5t15.5 -133t50 -120.5t103 -84t165 -34t174.5 34t127 84t84 120.5t51 133t27 132.5l122 860h136l-127 -895q-37 -258 -186.5 -425t-426.5 -167q-143 0 -242.5 49t-144.5 131t-61.5 188.5z M649 1720q6 41 39 70t74 29t65.5 -29t18.5 -70t-39 -69.5t-74 -28.5t-65.5 28.5t-18.5 69.5zM1038 1720q6 41 39 70t74 29t65.5 -29t18.5 -70t-39 -69.5t-74 -28.5t-65.5 28.5t-18.5 69.5z" />
<glyph unicode="&#xdd;" horiz-adv-x="1175" d="M193 1450h161l340 -688l547 688h152l-650 -825l-88 -625h-135l88 625zM686 1540l254 295h164l-316 -295h-102z" />
<glyph unicode="&#xde;" horiz-adv-x="1175" d="M199 0l204 1450h134l-45 -320h284q66 0 126.5 -10t119.5 -37.5t99 -68.5t59.5 -109.5t7.5 -156.5q-27 -186 -166 -282.5t-324 -96.5h-313l-51 -369h-135zM403 492h308q129 0 226 61t116 195q18 131 -65 195.5t-214 64.5h-299z" />
<glyph unicode="&#xdf;" horiz-adv-x="1214" d="M164 0l153 1094q31 215 163 347t337 132q166 0 259 -97.5t69 -269.5q-16 -119 -83 -202.5t-165 -112.5v-4q317 -61 264 -434q-31 -217 -188.5 -341t-382.5 -124q-55 0 -94 10l16 119q43 -18 106 -19q166 0 282 96.5t138 256.5q27 182 -71.5 279t-261.5 97h-43l14 111h31 q123 0 210 71.5t105 192.5q16 125 -48.5 192.5t-182.5 67.5q-158 0 -243 -107.5t-110 -279.5l-151 -1075h-123z" />
<glyph unicode="&#xe0;" horiz-adv-x="1062" d="M158 256q43 317 567 317h143l9 58q18 117 -47.5 173t-186.5 56q-164 0 -303 -106l-61 84q74 61 179 97t201 36q178 0 265.5 -84t62.5 -258l-33 -232q-37 -276 -36 -397h-115q-2 68 10 154h-4q-129 -178 -358 -179q-137 0 -225 71t-68 210zM281 262q-12 -82 47 -129 t143 -47q180 0 267 93t108 233l10 63h-135q-176 0 -300 -50t-140 -163zM479 1450h164l170 -295h-102z" />
<glyph unicode="&#xe1;" horiz-adv-x="1062" d="M158 256q43 317 567 317h143l9 58q18 117 -47.5 173t-186.5 56q-164 0 -303 -106l-61 84q74 61 179 97t201 36q178 0 265.5 -84t62.5 -258l-33 -232q-37 -276 -36 -397h-115q-2 68 10 154h-4q-129 -178 -358 -179q-137 0 -225 71t-68 210zM281 262q-12 -82 47 -129 t143 -47q180 0 267 93t108 233l10 63h-135q-176 0 -300 -50t-140 -163zM575 1155l256 295h164l-317 -295h-103z" />
<glyph unicode="&#xe2;" horiz-adv-x="1062" d="M158 256q43 317 567 317h143l9 58q18 117 -47.5 173t-186.5 56q-164 0 -303 -106l-61 84q74 61 179 97t201 36q178 0 265.5 -84t62.5 -258l-33 -232q-37 -276 -36 -397h-115q-2 68 10 154h-4q-129 -178 -358 -179q-137 0 -225 71t-68 210zM281 262q-12 -82 47 -129 t143 -47q180 0 267 93t108 233l10 63h-135q-176 0 -300 -50t-140 -163zM401 1155l265 295h143l178 -295h-133l-135 221l-197 -221h-121z" />
<glyph unicode="&#xe3;" horiz-adv-x="1062" d="M158 256q43 317 567 317h143l9 58q18 117 -47.5 173t-186.5 56q-164 0 -303 -106l-61 84q74 61 179 97t201 36q178 0 265.5 -84t62.5 -258l-33 -232q-37 -276 -36 -397h-115q-2 68 10 154h-4q-129 -178 -358 -179q-137 0 -225 71t-68 210zM281 262q-12 -82 47 -129 t143 -47q180 0 267 93t108 233l10 63h-135q-176 0 -300 -50t-140 -163zM381 1190q20 80 74 139q63 70 139 70q55 0 145 -51q90 -47 123 -48q80 0 113 99h74q-23 -86 -74 -147.5t-127 -61.5q-49 0 -147.5 49t-129.5 49q-80 0 -116 -98h-74z" />
<glyph unicode="&#xe4;" horiz-adv-x="1062" d="M158 256q43 317 567 317h143l9 58q18 117 -47.5 173t-186.5 56q-164 0 -303 -106l-61 84q74 61 179 97t201 36q178 0 265.5 -84t62.5 -258l-33 -232q-37 -276 -36 -397h-115q-2 68 10 154h-4q-129 -178 -358 -179q-137 0 -225 71t-68 210zM281 262q-12 -82 47 -129 t143 -47q180 0 267 93t108 233l10 63h-135q-176 0 -300 -50t-140 -163zM428 1335q4 41 37 70t74 29t65.5 -29t20.5 -70q-6 -41 -39 -69.5t-74 -28.5t-65.5 28.5t-18.5 69.5zM817 1335q4 41 37 70t74 29t65.5 -29t20.5 -70q-6 -41 -39 -69.5t-74 -28.5t-65.5 28.5t-18.5 69.5 z" />
<glyph unicode="&#xe5;" horiz-adv-x="1062" d="M158 256q43 317 567 317h143l9 58q18 117 -47.5 173t-186.5 56q-164 0 -303 -106l-61 84q74 61 179 97t201 36q178 0 265.5 -84t62.5 -258l-33 -232q-37 -276 -36 -397h-115q-2 68 10 154h-4q-129 -178 -358 -179q-137 0 -225 71t-68 210zM281 262q-12 -82 47 -129 t143 -47q180 0 267 93t108 233l10 63h-135q-176 0 -300 -50t-140 -163zM528 1329q10 78 76 136.5t146 58.5q78 0 124 -59.5t35 -137.5q-10 -76 -73.5 -134t-141.5 -58q-80 0 -128 57t-38 137zM602 1327q-8 -51 21.5 -85t78.5 -34q51 0 89 35t45 86q8 51 -20 86t-79 35 q-49 0 -88 -36t-47 -87z" />
<glyph unicode="&#xe6;" horiz-adv-x="1744" d="M147 256q6 51 32 98t77 94.5t151.5 76t237.5 28.5h236l2 18q41 289 -250 289q-164 0 -303 -106l-62 84q74 61 179.5 97t201.5 36q135 0 219 -45t121 -152q63 92 168 144.5t207 52.5q186 0 290.5 -114t71.5 -343l-10 -72h-729q-27 -152 46 -254t233 -102q178 0 293 152 l88 -70q-94 -104 -190.5 -148.5t-227.5 -44.5q-276 0 -340 234q-143 -233 -449 -234q-137 0 -225 71t-68 210zM270 262q-12 -82 47.5 -129t143.5 -47q180 0 280.5 99.5t122.5 256.5h-239q-102 0 -175 -19.5t-109 -50t-51.5 -57t-19.5 -53.5zM1004 553h606q18 135 -45.5 221 t-212.5 86q-137 0 -234.5 -89t-113.5 -218z" />
<glyph unicode="&#xe7;" horiz-adv-x="985" d="M176 473q31 217 191.5 357.5t377.5 140.5q209 0 328 -164l-108 -74q-96 127 -236 127q-170 0 -287.5 -111.5t-142.5 -275.5q-23 -164 64.5 -275.5t257.5 -111.5q147 0 272 131l84 -78q-162 -164 -373 -164q-18 0 -29 2l-92 -108l4 -4q27 14 66 14q70 0 114 -39t35 -108 q-12 -86 -87.5 -130t-165.5 -44q-102 0 -189 43l37 65q61 -35 152 -35q47 0 91 22.5t50 65.5t-26 64.5t-77 21.5q-49 0 -92 -16l-28 31l139 166q-172 29 -264.5 163t-65.5 324z" />
<glyph unicode="&#xe8;" horiz-adv-x="1138" d="M178 475q29 213 182.5 354.5t360.5 141.5t306 -132t75 -311l-12 -86h-795q-6 -45 3 -100t38 -115.5t98.5 -100.5t169.5 -40q94 0 189.5 46t150.5 122l80 -76q-166 -203 -438 -203q-215 0 -327 139.5t-81 360.5zM311 553h672q16 127 -66.5 217t-218.5 90q-92 0 -170.5 -40 t-122 -96t-68 -101t-26.5 -70zM516 1450h164l170 -295h-102z" />
<glyph unicode="&#xe9;" horiz-adv-x="1138" d="M178 475q29 213 182.5 354.5t360.5 141.5t306 -132t75 -311l-12 -86h-795q-6 -45 3 -100t38 -115.5t98.5 -100.5t169.5 -40q94 0 189.5 46t150.5 122l80 -76q-166 -203 -438 -203q-215 0 -327 139.5t-81 360.5zM311 553h672q16 127 -66.5 217t-218.5 90q-92 0 -170.5 -40 t-122 -96t-68 -101t-26.5 -70zM612 1155l256 295h164l-317 -295h-103z" />
<glyph unicode="&#xea;" horiz-adv-x="1138" d="M178 475q29 213 182.5 354.5t360.5 141.5t306 -132t75 -311l-12 -86h-795q-6 -45 3 -100t38 -115.5t98.5 -100.5t169.5 -40q94 0 189.5 46t150.5 122l80 -76q-166 -203 -438 -203q-215 0 -327 139.5t-81 360.5zM311 553h672q16 127 -66.5 217t-218.5 90q-92 0 -170.5 -40 t-122 -96t-68 -101t-26.5 -70zM438 1155l264 295h144l178 -295h-133l-135 221l-197 -221h-121z" />
<glyph unicode="&#xeb;" horiz-adv-x="1138" d="M178 475q29 213 182.5 354.5t360.5 141.5t306 -132t75 -311l-12 -86h-795q-6 -45 3 -100t38 -115.5t98.5 -100.5t169.5 -40q94 0 189.5 46t150.5 122l80 -76q-166 -203 -438 -203q-215 0 -327 139.5t-81 360.5zM311 553h672q16 127 -66.5 217t-218.5 90q-92 0 -170.5 -40 t-122 -96t-68 -101t-26.5 -70zM465 1335q4 41 37 70t73.5 29t65.5 -29t21 -70q-6 -41 -39 -69.5t-74 -28.5t-65.5 28.5t-18.5 69.5zM854 1335q4 41 37 70t74 29t65.5 -29t20.5 -70q-6 -41 -39 -69.5t-74 -28.5t-65.5 28.5t-18.5 69.5z" />
<glyph unicode="&#xec;" horiz-adv-x="491" d="M184 0l133 946h123l-133 -946h-123zM193 1450h163l170 -295h-102z" />
<glyph unicode="&#xed;" horiz-adv-x="491" d="M184 0l133 946h123l-133 -946h-123zM289 1155l256 295h164l-318 -295h-102z" />
<glyph unicode="&#xee;" horiz-adv-x="491" d="M115 1155l264 295h143l178 -295h-133l-135 221l-196 -221h-121zM184 0l133 946h123l-133 -946h-123z" />
<glyph unicode="&#xef;" horiz-adv-x="491" d="M141 1335q4 41 37 70t74 29t65.5 -29t20.5 -70q-6 -41 -39 -69.5t-74 -28.5t-65.5 28.5t-18.5 69.5zM184 0l133 946h123l-133 -946h-123zM530 1335q4 41 37 70t74 29t65.5 -29t20.5 -70q-6 -41 -39 -69.5t-74 -28.5t-65.5 28.5t-18.5 69.5z" />
<glyph unicode="&#xf0;" horiz-adv-x="1216" d="M176 473q31 217 191.5 357.5t377.5 140.5q178 0 289 -113l4 4q-106 256 -270 424l-236 -117l-53 68l230 115q-94 98 -170 159l114 62q96 -80 172 -164l230 115l63 -62l-233 -116q358 -371 295 -822q-35 -252 -195 -400.5t-381 -148.5q-217 0 -337 140.5t-91 357.5z M299 473q-23 -164 64.5 -275.5t257.5 -111.5t287.5 111.5t140.5 275.5q25 164 -62.5 275.5t-257.5 111.5t-287.5 -111.5t-142.5 -275.5z" />
<glyph unicode="&#xf1;" horiz-adv-x="1138" d="M164 0l96 680q4 35 14.5 138.5t12.5 127.5h123q-16 -143 -15 -166h6q49 82 144.5 136.5t206.5 54.5q360 0 303 -408l-80 -563h-123l78 557q45 303 -195 303q-143 0 -249.5 -100.5t-133.5 -286.5l-65 -473h-123zM418 1190q20 80 74 139q63 70 139 70q55 0 145 -51 q90 -47 123 -48q80 0 113 99h73q-23 -86 -73.5 -147.5t-126.5 -61.5q-49 0 -147.5 49t-129.5 49q-80 0 -116 -98h-74z" />
<glyph unicode="&#xf2;" horiz-adv-x="1216" d="M176 473q31 217 191.5 357.5t378 140.5t337 -140.5t88.5 -357.5q-29 -217 -189.5 -357.5t-377.5 -140.5t-337 140.5t-91 357.5zM299 473q-23 -164 64.5 -275.5t257.5 -111.5t287.5 111.5t140.5 275.5q25 164 -62.5 275.5t-257.5 111.5t-287.5 -111.5t-142.5 -275.5z M555 1450h164l170 -295h-103z" />
<glyph unicode="&#xf3;" horiz-adv-x="1216" d="M176 473q31 217 191.5 357.5t378 140.5t337 -140.5t88.5 -357.5q-29 -217 -189.5 -357.5t-377.5 -140.5t-337 140.5t-91 357.5zM299 473q-23 -164 64.5 -275.5t257.5 -111.5t287.5 111.5t140.5 275.5q25 164 -62.5 275.5t-257.5 111.5t-287.5 -111.5t-142.5 -275.5z M651 1155l256 295h164l-317 -295h-103z" />
<glyph unicode="&#xf4;" horiz-adv-x="1216" d="M176 473q31 217 191.5 357.5t378 140.5t337 -140.5t88.5 -357.5q-29 -217 -189.5 -357.5t-377.5 -140.5t-337 140.5t-91 357.5zM299 473q-23 -164 64.5 -275.5t257.5 -111.5t287.5 111.5t140.5 275.5q25 164 -62.5 275.5t-257.5 111.5t-287.5 -111.5t-142.5 -275.5z M477 1155l264 295h144l178 -295h-133l-135 221l-197 -221h-121z" />
<glyph unicode="&#xf5;" horiz-adv-x="1216" d="M176 473q31 217 191.5 357.5t378 140.5t337 -140.5t88.5 -357.5q-29 -217 -189.5 -357.5t-377.5 -140.5t-337 140.5t-91 357.5zM299 473q-23 -164 64.5 -275.5t257.5 -111.5t287.5 111.5t140.5 275.5q25 164 -62.5 275.5t-257.5 111.5t-287.5 -111.5t-142.5 -275.5z M457 1190q20 80 73 139q63 70 140 70q55 0 145 -51q90 -47 123 -48q80 0 113 99h73q-23 -86 -74 -147.5t-126 -61.5q-49 0 -147.5 49t-129.5 49q-80 0 -117 -98h-73z" />
<glyph unicode="&#xf6;" horiz-adv-x="1216" d="M176 473q31 217 191.5 357.5t378 140.5t337 -140.5t88.5 -357.5q-29 -217 -189.5 -357.5t-377.5 -140.5t-337 140.5t-91 357.5zM299 473q-23 -164 64.5 -275.5t257.5 -111.5t287.5 111.5t140.5 275.5q25 164 -62.5 275.5t-257.5 111.5t-287.5 -111.5t-142.5 -275.5z M504 1335q4 41 36.5 70t73.5 29t66 -29t20 -70q-6 -41 -38.5 -69.5t-73.5 -28.5t-65.5 28.5t-18.5 69.5zM893 1335q4 41 37 70t73.5 29t65.5 -29t21 -70q-6 -41 -39 -69.5t-74 -28.5t-65.5 28.5t-18.5 69.5z" />
<glyph unicode="&#xf7;" horiz-adv-x="1363" d="M240 571l14 99h1044l-14 -99h-1044zM620.5 305q6.5 43 41 73t77.5 32q43 0 70 -31t20.5 -74t-41 -73.5t-77.5 -30.5t-70 30.5t-20.5 73.5zM708.5 936q6.5 43 41 73.5t77.5 30.5t70 -30.5t20.5 -73.5t-41 -74t-77.5 -31t-70 31t-20.5 74z" />
<glyph unicode="&#xf8;" horiz-adv-x="1216" d="M80 4l164 146q-92 129 -68 323q31 217 191.5 357.5t377.5 140.5q186 0 306 -109l161 144l58 -60l-166 -145q96 -131 67 -328q-29 -217 -189.5 -357.5t-377.5 -140.5q-193 0 -307 111l-160 -141zM299 473q-18 -139 41 -237l614 542q-86 82 -225 82q-170 0 -287.5 -111.5 t-142.5 -275.5zM393 170q80 -84 228 -84q170 0 287.5 111.5t140.5 275.5q23 147 -41 242z" />
<glyph unicode="&#xf9;" horiz-adv-x="1138" d="M207 383l80 563h123l-78 -557q-45 -303 194 -303q143 0 250 100.5t131 286.5l68 473h123l-97 -680q-6 -39 -15 -144.5t-11 -121.5h-123q16 143 14 166h-6q-49 -82 -144 -136.5t-206 -54.5q-360 0 -303 408zM516 1450h164l170 -295h-102z" />
<glyph unicode="&#xfa;" horiz-adv-x="1138" d="M207 383l80 563h123l-78 -557q-45 -303 194 -303q143 0 250 100.5t131 286.5l68 473h123l-97 -680q-6 -39 -15 -144.5t-11 -121.5h-123q16 143 14 166h-6q-49 -82 -144 -136.5t-206 -54.5q-360 0 -303 408zM612 1155l256 295h164l-317 -295h-103z" />
<glyph unicode="&#xfb;" horiz-adv-x="1138" d="M207 383l80 563h123l-78 -557q-45 -303 194 -303q143 0 250 100.5t131 286.5l68 473h123l-97 -680q-6 -39 -15 -144.5t-11 -121.5h-123q16 143 14 166h-6q-49 -82 -144 -136.5t-206 -54.5q-360 0 -303 408zM438 1155l264 295h144l178 -295h-133l-135 221l-197 -221h-121z " />
<glyph unicode="&#xfc;" horiz-adv-x="1138" d="M207 383l80 563h123l-78 -557q-45 -303 194 -303q143 0 250 100.5t131 286.5l68 473h123l-97 -680q-6 -39 -15 -144.5t-11 -121.5h-123q16 143 14 166h-6q-49 -82 -144 -136.5t-206 -54.5q-360 0 -303 408zM465 1335q4 41 37 70t73.5 29t65.5 -29t21 -70 q-6 -41 -39 -69.5t-74 -28.5t-65.5 28.5t-18.5 69.5zM854 1335q4 41 37 70t74 29t65.5 -29t20.5 -70q-6 -41 -39 -69.5t-74 -28.5t-65.5 28.5t-18.5 69.5z" />
<glyph unicode="&#xfd;" horiz-adv-x="948" d="M-16 -473l26 115q76 -23 109 -23q43 0 78.5 26.5t56 55.5t45.5 76l117 219l-252 950h137l201 -796l418 796h131l-662 -1239q-104 -199 -289 -199q-50 1 -116 19zM518 1155l256 295h164l-317 -295h-103z" />
<glyph unicode="&#xfe;" horiz-adv-x="1251" d="M72 -467l282 2015h123l-106 -768h4q68 92 179.5 141.5t225.5 49.5q217 0 337 -140.5t89 -357.5q-29 -217 -189.5 -357.5t-377.5 -140.5q-115 0 -213 49.5t-139 141.5h-4l-88 -633h-123zM313.5 473q-22.5 -162 76.5 -274.5t265 -112.5q170 0 288 111.5t140 275.5 q25 164 -62 275.5t-257 111.5q-166 0 -297 -112.5t-153.5 -274.5z" />
<glyph unicode="&#xff;" horiz-adv-x="948" d="M-16 -473l26 115q76 -23 109 -23q43 0 78.5 26.5t56 55.5t45.5 76l117 219l-252 950h137l201 -796l418 796h131l-662 -1239q-104 -199 -289 -199q-50 1 -116 19zM371 1335q4 41 36.5 70t73.5 29t65.5 -29t20.5 -70q-6 -41 -38.5 -69.5t-73.5 -28.5t-65.5 28.5t-18.5 69.5 zM760 1335q4 41 36.5 70t73.5 29t66 -29t20 -70q-6 -41 -38.5 -69.5t-73.5 -28.5t-65.5 28.5t-18.5 69.5z" />
<glyph unicode="&#x152;" horiz-adv-x="1933" d="M223 725q33 229 171 398t325.5 248t396.5 79h885l-19 -123h-606l-71 -516h571l-18 -123h-572l-80 -565h623l-17 -123h-966q-301 0 -484.5 203t-138.5 522zM358 725q-23 -160 23.5 -283t135.5 -188.5t187.5 -98t194.5 -32.5h172l170 1204h-160q-113 0 -226.5 -36 t-219 -105.5t-181.5 -189t-96 -271.5z" />
<glyph unicode="&#x153;" horiz-adv-x="1857" d="M156 473q31 215 185.5 356.5t356.5 141.5q285 0 373 -236q55 98 158.5 167t247.5 69q186 0 290.5 -114t71.5 -343l-10 -72h-729q-27 -152 46 -254t232 -102q178 0 293 152l88 -70q-94 -104 -190 -148.5t-228 -44.5q-276 0 -340 234h-4q-74 -113 -188.5 -173.5 t-251.5 -60.5q-203 0 -316.5 140.5t-84.5 357.5zM279 473q-20 -160 60.5 -273.5t238.5 -113.5q160 0 270 111.5t133 275.5q25 164 -56 275.5t-239 111.5t-271 -114.5t-136 -272.5zM1116 553h606q18 135 -45 221t-213 86q-137 0 -234.5 -89t-113.5 -218z" />
<glyph unicode="&#x178;" horiz-adv-x="1175" d="M193 1450h161l340 -688l547 688h152l-650 -825l-88 -625h-135l88 625zM536.5 1720q6.5 41 39 70t73.5 29t65.5 -29t18.5 -70t-38.5 -69.5t-73.5 -28.5t-66 28.5t-18.5 69.5zM926 1720q6 41 38.5 70t73.5 29t65.5 -29t18.5 -70t-38.5 -69.5t-73.5 -28.5t-65.5 28.5 t-18.5 69.5z" />
<glyph unicode="&#x2c6;" horiz-adv-x="491" d="M115 1155l264 295h143l178 -295h-133l-135 221l-196 -221h-121z" />
<glyph unicode="&#x2dc;" horiz-adv-x="491" d="M94 1190q20 80 74 139q63 70 139 70q55 0 146 -51q90 -47 122 -48q80 0 113 99h74q-23 -86 -74 -147.5t-127 -61.5q-49 0 -147.5 49t-128.5 49q-80 0 -117 -98h-74z" />
<glyph unicode="&#x2000;" horiz-adv-x="954" />
<glyph unicode="&#x2001;" horiz-adv-x="1908" />
<glyph unicode="&#x2002;" horiz-adv-x="954" />
<glyph unicode="&#x2003;" horiz-adv-x="1908" />
<glyph unicode="&#x2004;" horiz-adv-x="634" />
<glyph unicode="&#x2005;" horiz-adv-x="477" />
<glyph unicode="&#x2006;" horiz-adv-x="317" />
<glyph unicode="&#x2007;" horiz-adv-x="317" />
<glyph unicode="&#x2008;" horiz-adv-x="237" />
<glyph unicode="&#x2009;" horiz-adv-x="380" />
<glyph unicode="&#x200a;" horiz-adv-x="104" />
<glyph unicode="&#x2010;" horiz-adv-x="681" d="M150 430l14 111h506l-15 -111h-505z" />
<glyph unicode="&#x2011;" horiz-adv-x="681" d="M150 430l14 111h506l-15 -111h-505z" />
<glyph unicode="&#x2012;" horiz-adv-x="681" d="M150 430l14 111h506l-15 -111h-505z" />
<glyph unicode="&#x2013;" horiz-adv-x="1024" d="M61 430l15 111h1024l-15 -111h-1024z" />
<glyph unicode="&#x2014;" horiz-adv-x="2048" d="M61 430l15 111h2048l-15 -111h-2048z" />
<glyph unicode="&#x2018;" horiz-adv-x="532" d="M264 983l223 467h123l-198 -467h-148z" />
<glyph unicode="&#x2019;" horiz-adv-x="532" d="M264 983l197 467h149l-225 -467h-121z" />
<glyph unicode="&#x201a;" horiz-adv-x="532" d="M88 -283l195 467h149l-223 -467h-121z" />
<glyph unicode="&#x201c;" d="M352 983l226 467h120l-196 -467h-150zM709 983l225 467h121l-197 -467h-149z" />
<glyph unicode="&#x201d;" d="M352 983l197 467h149l-225 -467h-121zM709 983l196 467h150l-226 -467h-120z" />
<glyph unicode="&#x201e;" d="M176 -283l195 467h149l-223 -467h-121zM532 -283l195 467h150l-224 -467h-121z" />
<glyph unicode="&#x2022;" horiz-adv-x="1024" d="M252 725q23 152 143.5 257t270.5 105q152 0 241.5 -106.5t69.5 -255.5q-23 -152 -143.5 -257.5t-270.5 -105.5q-152 0 -241.5 106.5t-69.5 256.5z" />
<glyph unicode="&#x2026;" horiz-adv-x="2048" d="M256 86q6 41 39 69.5t74 28.5t65.5 -28.5t18 -69.5t-39 -69.5t-73.5 -28.5t-65.5 28.5t-18.5 69.5zM938 86q6 41 39 69.5t74 28.5t65.5 -28.5t18 -69.5t-39 -69.5t-73.5 -28.5t-65.5 28.5t-18.5 69.5zM1620 86q6 41 39 69.5t74 28.5t65.5 -28.5t18 -69.5t-39 -69.5 t-73.5 -28.5t-65.5 28.5t-18.5 69.5z" />
<glyph unicode="&#x202f;" horiz-adv-x="380" />
<glyph unicode="&#x2039;" horiz-adv-x="645" d="M197 485l340 416l77 -59l-288 -357l192 -360l-98 -55z" />
<glyph unicode="&#x203a;" horiz-adv-x="645" d="M168 129l287 356l-191 361l98 55l222 -416l-338 -415z" />
<glyph unicode="&#x205f;" horiz-adv-x="477" />
<glyph unicode="&#x20ac;" d="M104 498l41 96h113q4 57 12 123q6 35 31 157h-145l45 97h129q86 264 241.5 384t333.5 120q166 0 283 -64l-53 -115q-115 68 -228 68q-154 0 -269.5 -100.5t-178.5 -292.5h555l-39 -97h-545q-18 -80 -31 -163q-10 -61 -12 -117h479l-39 -96h-444q0 -418 283 -418 q84 0 161.5 41t122.5 104l78 -63q-63 -80 -168.5 -133.5t-210.5 -53.5q-197 0 -298 134.5t-99 388.5h-148z" />
<glyph unicode="&#x2122;" horiz-adv-x="2027" d="M362 1352l15 98h655l-14 -98h-273l-104 -746h-111l105 746h-273zM1065 606l119 844h176l170 -672l360 672h170l-118 -844h-111l102 740h-4l-393 -740h-66l-188 740h-4l-102 -740h-111z" />
<glyph unicode="&#xe000;" horiz-adv-x="945" d="M0 945h945v-945h-945v945z" />
<glyph unicode="&#xfb01;" horiz-adv-x="1062" d="M154 836l16 110h197l43 309q25 166 121 242t206 76q86 0 137 -25l-38 -106q-39 20 -109 20q-164 0 -201 -252l-37 -264h222l-17 -110h-221l-117 -836h-123l117 836h-196zM756 0l133 946h123l-133 -946h-123zM911 1321q4 39 35 65.5t70 26.5t61.5 -26.5t18.5 -65.5 q-6 -39 -37 -65.5t-70 -26.5t-61.5 26.5t-16.5 65.5z" />
<glyph unicode="&#xfb02;" horiz-adv-x="1062" d="M154 836l16 110h197l43 309q25 166 121 242t206 76q86 0 137 -25l-38 -106q-39 20 -109 20q-164 0 -201 -252l-37 -264h222l-17 -110h-221l-117 -836h-123l117 836h-196zM756 0l217 1548h123l-217 -1548h-123z" />
<glyph unicode="&#xfb03;" horiz-adv-x="1703" d="M1396 0l133 946h123l-133 -946h-123zM1552 1321q4 39 35 65.5t69.5 26.5t61.5 -27q19 -23 19 -53q0 -6 -1 -12q-6 -39 -36.5 -65.5t-69.5 -26.5t-62 26q-18 21 -17 50q0 8 1 16zM760 836l16 110h197l43 309q25 166 121 242t206 76q86 0 137 -25l-38 -106q-39 20 -109 20 q-164 0 -201 -252l-37 -264h222l-17 -110h-221l-117 -836h-123l117 836h-196zM154 836l16 110h197l43 309q25 166 121 242t206 76q86 0 137 -25l-38 -106q-39 20 -109 20q-164 0 -201 -252l-37 -264h222l-17 -110h-221l-117 -836h-123l117 836h-196z" />
<glyph unicode="&#xfb04;" horiz-adv-x="1703" d="M1396 0l217 1548h123l-217 -1548h-123zM760 836l16 110h197l43 309q25 166 121 242t206 76q86 0 137 -25l-38 -106q-39 20 -109 20q-164 0 -201 -252l-37 -264h222l-17 -110h-221l-117 -836h-123l117 836h-196zM154 836l16 110h197l43 309q25 166 121 242t206 76 q86 0 137 -25l-38 -106q-39 20 -109 20q-164 0 -201 -252l-37 -264h222l-17 -110h-221l-117 -836h-123l117 836h-196z" />
</font>
</defs>
</svg>
